<mxfile host="65bd71144e">
    <diagram id="jZlPm244Kykkc05TKV0b" name="Page-1">
        <mxGraphModel dx="1129" dy="798" grid="1" gridSize="10" guides="1" tooltips="1" connect="1" arrows="1" fold="1" page="1" pageScale="1" pageWidth="827" pageHeight="1169" math="0" shadow="0">
            <root>
                <mxCell id="0"/>
                <mxCell id="1" parent="0"/>
                <mxCell id="tYUnoeM07jTI4kaB2H-Y-5" style="edgeStyle=orthogonalEdgeStyle;rounded=0;orthogonalLoop=1;jettySize=auto;html=1;exitX=1;exitY=0.5;exitDx=0;exitDy=0;entryX=0;entryY=0.25;entryDx=0;entryDy=0;" parent="1" source="tYUnoeM07jTI4kaB2H-Y-3" target="tYUnoeM07jTI4kaB2H-Y-4" edge="1">
                    <mxGeometry relative="1" as="geometry"/>
                </mxCell>
                <mxCell id="tYUnoeM07jTI4kaB2H-Y-6" style="edgeStyle=orthogonalEdgeStyle;rounded=0;orthogonalLoop=1;jettySize=auto;html=1;exitX=0;exitY=0.5;exitDx=0;exitDy=0;entryX=0;entryY=0.75;entryDx=0;entryDy=0;endArrow=classic;endFill=1;startArrow=classic;startFill=1;" parent="1" source="tYUnoeM07jTI4kaB2H-Y-3" target="tYUnoeM07jTI4kaB2H-Y-4" edge="1">
                    <mxGeometry relative="1" as="geometry">
                        <Array as="points">
                            <mxPoint x="320" y="320"/>
                            <mxPoint x="320" y="395"/>
                        </Array>
                    </mxGeometry>
                </mxCell>
                <mxCell id="tYUnoeM07jTI4kaB2H-Y-3" value="5&amp;nbsp; &amp;nbsp;&amp;nbsp;" style="triangle;whiteSpace=wrap;html=1;" parent="1" vertex="1">
                    <mxGeometry x="360" y="300" width="40" height="40" as="geometry"/>
                </mxCell>
                <mxCell id="tYUnoeM07jTI4kaB2H-Y-9" style="edgeStyle=orthogonalEdgeStyle;rounded=0;orthogonalLoop=1;jettySize=auto;html=1;exitX=0.5;exitY=0;exitDx=0;exitDy=0;startArrow=classic;startFill=1;endArrow=none;endFill=0;" parent="1" source="tYUnoeM07jTI4kaB2H-Y-4" edge="1">
                    <mxGeometry relative="1" as="geometry">
                        <mxPoint x="479.6896551724137" y="320" as="targetPoint"/>
                    </mxGeometry>
                </mxCell>
                <mxCell id="tYUnoeM07jTI4kaB2H-Y-4" value="Mux" style="rounded=1;whiteSpace=wrap;html=1;" parent="1" vertex="1">
                    <mxGeometry x="460" y="350" width="40" height="60" as="geometry"/>
                </mxCell>
                <mxCell id="tYUnoeM07jTI4kaB2H-Y-7" value="" style="endArrow=none;html=1;rounded=0;startArrow=none;" parent="1" source="tYUnoeM07jTI4kaB2H-Y-22" edge="1">
                    <mxGeometry width="50" height="50" relative="1" as="geometry">
                        <mxPoint x="200" y="360" as="sourcePoint"/>
                        <mxPoint x="320" y="360" as="targetPoint"/>
                    </mxGeometry>
                </mxCell>
                <mxCell id="tYUnoeM07jTI4kaB2H-Y-8" value="Sensado de&lt;br&gt;corriente" style="text;html=1;align=center;verticalAlign=middle;resizable=0;points=[];autosize=1;strokeColor=none;fillColor=none;" parent="1" vertex="1">
                    <mxGeometry x="110" y="340" width="90" height="40" as="geometry"/>
                </mxCell>
                <mxCell id="tYUnoeM07jTI4kaB2H-Y-10" value="Precarga/CC" style="text;html=1;align=center;verticalAlign=middle;resizable=0;points=[];autosize=1;strokeColor=none;fillColor=none;" parent="1" vertex="1">
                    <mxGeometry x="435" y="295" width="90" height="30" as="geometry"/>
                </mxCell>
                <mxCell id="tYUnoeM07jTI4kaB2H-Y-13" style="edgeStyle=orthogonalEdgeStyle;rounded=0;orthogonalLoop=1;jettySize=auto;html=1;exitX=0;exitY=0.25;exitDx=0;exitDy=0;entryX=1;entryY=0.5;entryDx=0;entryDy=0;startArrow=classic;startFill=1;endArrow=none;endFill=0;" parent="1" source="tYUnoeM07jTI4kaB2H-Y-11" target="tYUnoeM07jTI4kaB2H-Y-4" edge="1">
                    <mxGeometry relative="1" as="geometry"/>
                </mxCell>
                <mxCell id="tYUnoeM07jTI4kaB2H-Y-16" style="edgeStyle=orthogonalEdgeStyle;rounded=0;orthogonalLoop=1;jettySize=auto;html=1;exitX=0;exitY=0.75;exitDx=0;exitDy=0;startArrow=classic;startFill=1;endArrow=none;endFill=0;" parent="1" source="tYUnoeM07jTI4kaB2H-Y-11" edge="1">
                    <mxGeometry relative="1" as="geometry">
                        <mxPoint x="200" y="440" as="targetPoint"/>
                    </mxGeometry>
                </mxCell>
                <mxCell id="tYUnoeM07jTI4kaB2H-Y-17" style="edgeStyle=orthogonalEdgeStyle;rounded=0;orthogonalLoop=1;jettySize=auto;html=1;exitX=1;exitY=0.5;exitDx=0;exitDy=0;startArrow=none;startFill=0;endArrow=classic;endFill=1;" parent="1" source="tYUnoeM07jTI4kaB2H-Y-11" edge="1">
                    <mxGeometry relative="1" as="geometry">
                        <mxPoint x="660" y="420.344827586207" as="targetPoint"/>
                    </mxGeometry>
                </mxCell>
                <mxCell id="tYUnoeM07jTI4kaB2H-Y-19" style="edgeStyle=orthogonalEdgeStyle;rounded=0;orthogonalLoop=1;jettySize=auto;html=1;exitX=0.5;exitY=0;exitDx=0;exitDy=0;startArrow=classic;startFill=1;endArrow=none;endFill=0;" parent="1" source="tYUnoeM07jTI4kaB2H-Y-11" edge="1">
                    <mxGeometry relative="1" as="geometry">
                        <mxPoint x="599.689655172414" y="350" as="targetPoint"/>
                    </mxGeometry>
                </mxCell>
                <mxCell id="tYUnoeM07jTI4kaB2H-Y-11" value="Mux" style="rounded=1;whiteSpace=wrap;html=1;" parent="1" vertex="1">
                    <mxGeometry x="580" y="380" width="40" height="80" as="geometry"/>
                </mxCell>
                <mxCell id="tYUnoeM07jTI4kaB2H-Y-15" value="Sensado de&lt;br&gt;tensiÃ³n" style="text;html=1;align=center;verticalAlign=middle;resizable=0;points=[];autosize=1;strokeColor=none;fillColor=none;" parent="1" vertex="1">
                    <mxGeometry x="110" y="420" width="90" height="40" as="geometry"/>
                </mxCell>
                <mxCell id="tYUnoeM07jTI4kaB2H-Y-18" value="Al amplificador&lt;br&gt;de error" style="text;html=1;align=center;verticalAlign=middle;resizable=0;points=[];autosize=1;strokeColor=none;fillColor=none;" parent="1" vertex="1">
                    <mxGeometry x="650" y="400" width="100" height="40" as="geometry"/>
                </mxCell>
                <mxCell id="tYUnoeM07jTI4kaB2H-Y-20" value="CC/CV" style="text;html=1;align=center;verticalAlign=middle;resizable=0;points=[];autosize=1;strokeColor=none;fillColor=none;" parent="1" vertex="1">
                    <mxGeometry x="570" y="325" width="60" height="30" as="geometry"/>
                </mxCell>
                <mxCell id="tYUnoeM07jTI4kaB2H-Y-22" value="Selector&amp;nbsp; &amp;nbsp;" style="triangle;whiteSpace=wrap;html=1;" parent="1" vertex="1">
                    <mxGeometry x="230" y="330" width="70" height="60" as="geometry"/>
                </mxCell>
                <mxCell id="tYUnoeM07jTI4kaB2H-Y-23" value="" style="endArrow=none;html=1;rounded=0;" parent="1" target="tYUnoeM07jTI4kaB2H-Y-22" edge="1">
                    <mxGeometry width="50" height="50" relative="1" as="geometry">
                        <mxPoint x="200" y="360" as="sourcePoint"/>
                        <mxPoint x="320" y="360" as="targetPoint"/>
                    </mxGeometry>
                </mxCell>
            </root>
        </mxGraphModel>
    </diagram>
</mxfile>